<svg width="59" height="59" viewBox="0 0 59 59" fill="none" xmlns="http://www.w3.org/2000/svg">
<g clip-path="url(#clip0_16_225)">
<rect width="59" height="59" rx="29.5" transform="matrix(-1 0 0 1 59 0)" fill="#5B93FF" fillOpacity="0.23"/>
<path d="M33.5448 44.9633C32.0779 42.5241 28.7099 37.8488 20.6906 31.2792C8.58964 21.3659 20.0106 12.2985 32.2799 17.1277C33.5924 17.6444 37.2295 15.5761 40.5986 17.7551C42.7719 19.1607 41.9261 20.2623 42.7724 21.3639C43.6186 22.4655 46.8811 22.4007 47.5959 25.2611C48.0192 26.9558 46.8478 28.7309 47.0044 30.0064C47.1611 31.2819 48.3977 32.4317 48.4567 34.1156C48.4822 34.8268 48.3674 35.5361 48.1188 36.2029C47.8702 36.8697 47.4926 37.481 47.0077 38.0019C46.5228 38.5228 45.94 38.9431 45.2927 39.2387C44.6453 39.5343 43.9461 39.6995 43.2349 39.7249C43.229 41.1309 42.68 42.4802 41.7026 43.4909C40.7252 44.5016 39.3949 45.0954 37.9899 45.1482C37.0889 45.1812 36.1942 44.9874 35.3876 44.5846C34.5873 45.3222 33.9003 45.5541 33.5448 44.9633Z" fill="#5B93FF"/>
<path d="M30.5454 16.5276C32.6315 17.8657 35.2125 22.2545 34.0796 28.1459C33.8325 29.4314 34.6047 29.8163 35.2653 28.2306C37.2585 23.447 37.4895 19.1329 34.0796 17.0693C33.4868 16.7124 33.148 17.0015 32.7245 16.9664C31.9191 16.8997 30.8347 16.329 30.5454 16.5276Z" fill="white"/>
<path d="M33.2555 42.4438C33.2555 40.9193 33.3074 33.3999 33.3048 33.2729C37.4902 33.8898 37.4055 25.9286 33.1708 27.8766C32.2392 28.4694 29.6137 27.8766 29.8678 22.9644C25.2944 27.8766 19.9846 22.1472 19.5293 26.8159C18.9075 33.1907 19.533 39.8622 23.4948 39.8627C23.9282 39.8574 24.3603 39.8142 24.7862 39.7336V42.4438C24.7862 44.1376 21.7373 44.9846 21.7373 44.9846C21.7373 44.9846 27.0038 49.9476 29.1903 49.9202C31.3767 49.8927 36.3045 44.9846 36.3045 44.9846C36.3045 44.9846 33.2555 44.1376 33.2555 42.4438Z" fill="url(#paint0_linear_16_225)"/>
<g style="mix-blend-mode:multiply">
<path d="M24.7863 39.7329C26.8877 39.2668 28.879 38.3983 30.6503 37.1753C30.6503 37.1753 29.1888 40.7482 24.7917 41.4261L24.7863 39.7329Z" fill="#FFDBC9"/>
</g>
<path d="M13.4377 50.0662C12.2088 52.7971 11.5744 61.0763 11.5744 61.0763H46.468C46.468 61.0763 45.8337 52.7971 44.6048 50.0662C43.5281 47.674 36.4337 44.9272 34.3547 44.1377C33.1543 45.4806 31.434 46.3397 29.0212 46.3397C26.6085 46.3397 24.8882 45.4806 23.6878 44.1377C21.6087 44.9272 14.5143 47.674 13.4377 50.0662Z" fill="#FFD66B"/>
</g>
<defs>
<linearGradient id="paint0_linear_16_225" x1="27.8589" y1="22.9644" x2="27.8589" y2="49.9203" gradientUnits="userSpaceOnUse">
<stop stop-color="#FFE0CC"/>
<stop offset="1" stop-color="#FFEADB"/>
</linearGradient>
<clipPath id="clip0_16_225">
<rect width="59" height="59" rx="29.5" transform="matrix(-1 0 0 1 59 0)" fill="white"/>
</clipPath>
</defs>
</svg>
