<svg width="24" height="21" viewBox="0 0 24 21" fill="none" xmlns="http://www.w3.org/2000/svg">
<g opacity="0.7">
<path fill-rule="evenodd" clip-rule="evenodd" d="M18.1895 3.78627C18.2355 3.86379 18.3161 3.91916 18.4197 3.91916C21.1828 3.91916 23.4393 6.0897 23.4393 8.7475V15.3256C23.4393 17.9834 21.1828 20.1539 18.4197 20.1539H5.43319C2.65859 20.1539 0.413574 17.9834 0.413574 15.3256V8.7475C0.413574 6.0897 2.65859 3.91916 5.43319 3.91916C5.52529 3.91916 5.6174 3.87487 5.65193 3.78627L5.72101 3.65338C5.7607 3.57294 5.80144 3.49032 5.84279 3.40644C6.13732 2.80904 6.46316 2.14813 6.66507 1.7597C7.19466 0.763025 8.09266 0.209316 9.20941 0.198242H14.632C15.7487 0.209316 16.6582 0.763025 17.1878 1.7597C17.3692 2.10859 17.6455 2.67062 17.9118 3.21228C17.9667 3.32395 18.0212 3.43475 18.0743 3.54264L18.1895 3.78627ZM17.3487 8.03793C17.3487 8.59164 17.8092 9.03461 18.3849 9.03461C18.9605 9.03461 19.4326 8.59164 19.4326 8.03793C19.4326 7.48422 18.9605 7.03018 18.3849 7.03018C17.8092 7.03018 17.3487 7.48422 17.3487 8.03793ZM9.93416 9.755C10.4753 9.23452 11.1776 8.95766 11.9259 8.95766C12.6742 8.95766 13.3765 9.23452 13.9061 9.74393C14.4357 10.2533 14.7235 10.9289 14.7235 11.6487C14.712 13.1326 13.4686 14.3397 11.9259 14.3397C11.1776 14.3397 10.4753 14.0629 9.94567 13.5534C9.41608 13.044 9.12826 12.3685 9.12826 11.6487V11.6376C9.11675 10.9399 9.40457 10.2644 9.93416 9.755ZM15.1153 14.727C14.2978 15.5132 13.1696 16.0005 11.9262 16.0005C10.7173 16.0005 9.58908 15.5465 8.72561 14.727C7.87366 13.8964 7.40163 12.8111 7.40163 11.6484C7.39012 10.4966 7.86215 9.41138 8.7141 8.58081C9.57757 7.75025 10.7173 7.29621 11.9262 7.29621C13.135 7.29621 14.2748 7.75025 15.1268 8.56974C15.9787 9.4003 16.4508 10.4966 16.4508 11.6484C16.4392 12.8554 15.9327 13.9407 15.1153 14.727Z" fill="#030229"/>
</g>
</svg>
