<svg width="28" height="24" viewBox="0 0 28 24" fill="none" xmlns="http://www.w3.org/2000/svg">
<g opacity="0.7">
<path fill-rule="evenodd" clip-rule="evenodd" d="M21.344 4.39482C21.398 4.48572 21.4925 4.55065 21.614 4.55065C24.854 4.55065 27.5 7.09582 27.5 10.2124V17.9258C27.5 21.0423 24.854 23.5875 21.614 23.5875H6.386C3.1325 23.5875 0.5 21.0423 0.5 17.9258V10.2124C0.5 7.09582 3.1325 4.55065 6.386 4.55065C6.494 4.55065 6.602 4.49871 6.6425 4.39482L6.7235 4.239C6.77005 4.14464 6.81783 4.04773 6.86634 3.94935C7.21169 3.24887 7.59375 2.47392 7.8305 2.01847C8.4515 0.849764 9.5045 0.200486 10.814 0.1875H17.1725C18.482 0.200486 19.5485 0.849764 20.1695 2.01847C20.3821 2.42756 20.7061 3.08655 21.0184 3.72167C21.0828 3.85264 21.1467 3.9826 21.209 4.10914L21.344 4.39482ZM20.3584 9.38103C20.3584 10.0303 20.8984 10.5497 21.5734 10.5497C22.2484 10.5497 22.802 10.0303 22.802 9.38103C22.802 8.73175 22.2484 8.19934 21.5734 8.19934C20.8984 8.19934 20.3584 8.73175 20.3584 9.38103ZM11.664 11.394C12.2985 10.7836 13.122 10.459 13.9995 10.459C14.877 10.459 15.7005 10.7836 16.3215 11.381C16.9425 11.9783 17.28 12.7704 17.28 13.6145C17.2665 15.3546 15.8085 16.77 13.9995 16.77C13.122 16.77 12.2985 16.4454 11.6775 15.848C11.0565 15.2507 10.719 14.4586 10.719 13.6145V13.6015C10.7055 12.7834 11.043 11.9913 11.664 11.394ZM17.7393 17.2245C16.7808 18.1464 15.4578 18.7178 13.9998 18.7178C12.5823 18.7178 11.2593 18.1854 10.2468 17.2245C9.24778 16.2505 8.69428 14.9779 8.69428 13.6145C8.68078 12.264 9.23428 10.9914 10.2333 10.0175C11.2458 9.04354 12.5823 8.51113 13.9998 8.51113C15.4173 8.51113 16.7538 9.04354 17.7528 10.0045C18.7518 10.9784 19.3053 12.264 19.3053 13.6145C19.2918 15.0299 18.6978 16.3025 17.7393 17.2245Z" fill="#030229"/>
</g>
</svg>
