<svg width="58" height="58" viewBox="0 0 58 58" fill="none" xmlns="http://www.w3.org/2000/svg">
<path d="M0 29C0 21.3087 3.05535 13.9325 8.4939 8.4939C13.9325 3.05535 21.3087 0 29 0C36.6913 0 44.0675 3.05535 49.5061 8.4939C54.9447 13.9325 58 21.3087 58 29C58 36.6913 54.9447 44.0675 49.5061 49.5061C44.0675 54.9447 36.6913 58 29 58C21.3087 58 13.9325 54.9447 8.4939 49.5061C3.05535 44.0675 0 36.6913 0 29ZM47.328 14.79L14.761 47.299C19.2233 50.766 24.7975 52.4852 30.4374 52.1339C36.0774 51.7826 41.3952 49.385 45.3927 45.391C49.3902 41.397 51.7926 36.0813 52.149 30.4417C52.5053 24.8021 50.791 19.2264 47.328 14.761V14.79ZM43.239 10.672C38.7764 7.18215 33.191 5.44577 27.5363 5.79034C21.8816 6.13492 16.5484 8.53662 12.5425 12.5425C8.53662 16.5484 6.13492 21.8816 5.79034 27.5363C5.44577 33.191 7.18215 38.7764 10.672 43.239L43.239 10.672Z" fill="#26C0E2"/>
</svg>
