<svg width="231" height="238" viewBox="0 0 231 238" fill="none" xmlns="http://www.w3.org/2000/svg">
<circle cx="132.501" cy="131.326" r="97.769" fill="#EDF9F0" stroke="#34C759" strokeWidth="0.114375"/>
<circle cx="22.9692" cy="103.734" r="22.2835" fill="#EDF9F0" stroke="#34C759" strokeWidth="0.0260683"/>
<path d="M79.8172 14.5477C79.8172 22.2395 73.5818 28.4749 65.89 28.4749C58.1982 28.4749 51.9628 22.2395 51.9628 14.5477C51.9628 6.85588 58.1982 0.620451 65.89 0.620451C73.5818 0.620451 79.8172 6.85588 79.8172 14.5477Z" fill="#EDF9F0" stroke="#34C759" strokeWidth="0.0162927"/>
<circle cx="219.458" cy="32.664" r="10.8632" fill="#EDF9F0" stroke="#34C759" strokeWidth="0.0127083"/>
<path d="M221.406 195.986C221.406 198.909 219.036 201.278 216.113 201.278C213.19 201.278 210.821 198.909 210.821 195.986C210.821 193.063 213.19 190.694 216.113 190.694C219.036 190.694 221.406 193.063 221.406 195.986Z" fill="#EDF9F0" stroke="#34C759" strokeWidth="0.00619121"/>
<path d="M158.022 38.805C157.71 38.7387 157.71 38.294 158.022 38.2277L164.304 36.8918C164.493 36.8515 164.641 36.704 164.682 36.5149L166.035 30.2771C166.102 29.967 166.544 29.967 166.611 30.2771L167.964 36.5149C168.005 36.704 168.153 36.8515 168.342 36.8918L174.625 38.2277C174.936 38.294 174.936 38.7387 174.625 38.805L168.342 40.1409C168.153 40.1812 168.005 40.3286 167.964 40.5178L166.611 46.7556C166.544 47.0657 166.102 47.0657 166.035 46.7556L164.682 40.5178C164.641 40.3286 164.493 40.1812 164.304 40.1409L158.022 38.805Z" fill="white" stroke="#34C759" strokeWidth="0.196735"/>
<path d="M17.5066 143.983C17.5689 143.688 17.9895 143.688 18.0519 143.983L19.9152 152.786C19.9833 153.108 20.2338 153.359 20.5552 153.43L29.2673 155.327C29.5599 155.391 29.5599 155.808 29.2673 155.872L20.5552 157.77C20.2338 157.84 19.9833 158.092 19.9152 158.414L18.0519 167.217C17.9895 167.511 17.5689 167.511 17.5066 167.217L15.6432 158.414C15.5751 158.092 15.3246 157.84 15.0032 157.77L6.29109 155.872C5.99858 155.808 5.99858 155.391 6.29109 155.327L15.0032 153.43C15.3246 153.359 15.5751 153.108 15.6432 152.786L17.5066 143.983Z" fill="white" stroke="#34C759" strokeWidth="0.557414"/>
<path d="M158.515 220.823C158.578 220.528 158.998 220.528 159.061 220.823L160.148 225.958C160.216 226.28 160.466 226.532 160.788 226.602L165.885 227.712C166.177 227.776 166.177 228.193 165.885 228.257L160.788 229.367C160.466 229.437 160.216 229.689 160.148 230.011L159.061 235.147C158.998 235.441 158.578 235.441 158.515 235.147L157.428 230.011C157.36 229.689 157.11 229.437 156.788 229.367L151.691 228.257C151.399 228.193 151.399 227.776 151.691 227.712L156.788 226.602C157.11 226.532 157.36 226.28 157.428 225.958L158.515 220.823Z" fill="white" stroke="#34C759" strokeWidth="0.557414"/>
<path d="M66.404 68.9247L164.192 56.0838C169.998 55.3215 175.322 59.4098 176.084 65.2152L190.989 178.723C191.752 184.528 187.664 189.853 181.858 190.615L84.0697 203.456C78.2642 204.218 72.94 200.13 72.1776 194.325L57.2726 80.8168C56.5102 75.0113 60.5985 69.687 66.404 68.9247Z" fill="#34C759" stroke="#34C759" strokeWidth="1.94532"/>
<path d="M192.55 71.7725H93.7743C87.3722 71.7725 82.1823 76.9624 82.1823 83.3645V198.019C82.1823 204.421 87.3722 209.611 93.7743 209.611H192.55C198.953 209.611 204.142 204.421 204.142 198.019V83.3645C204.142 76.9624 198.953 71.7725 192.55 71.7725Z" fill="#EDF9F0" stroke="#34C759" strokeWidth="1.94825" stroke-linecap="round" strokeLinejoin="round"/>
<path d="M142.673 143.112C148.663 143.112 154.11 144.847 158.118 147.29C160.118 148.515 161.828 149.952 163.063 151.515C164.278 153.055 165.173 154.895 165.173 156.862C165.173 158.975 164.145 160.64 162.665 161.827C161.265 162.952 159.418 163.697 157.455 164.217C153.51 165.26 148.245 165.612 142.673 165.612C137.1 165.612 131.835 165.262 127.89 164.217C125.928 163.697 124.08 162.952 122.68 161.827C121.198 160.637 120.173 158.975 120.173 156.862C120.173 154.895 121.068 153.055 122.283 151.515C123.518 149.952 125.225 148.515 127.228 147.29C131.235 144.847 136.685 143.112 142.673 143.112Z" fill="#34C759"/>
<path d="M142.673 115.612C152.295 115.612 158.31 126.03 153.498 134.362C152.401 136.262 150.823 137.84 148.922 138.938C147.022 140.035 144.867 140.612 142.673 140.612C133.05 140.612 127.035 130.195 131.848 121.862C132.945 119.962 134.523 118.384 136.423 117.287C138.323 116.19 140.478 115.612 142.673 115.612Z" fill="#34C759" fillOpacity="0.5"/>
</svg>
