<svg width="211" height="219" viewBox="0 0 211 219" fill="none" xmlns="http://www.w3.org/2000/svg">
<circle cx="121.114" cy="120.248" r="89.7941" fill="#EDF9F0" stroke="#34C759" stroke-width="0.105045"/>
<circle cx="20.5169" cy="94.9071" r="20.4659" fill="#EDF9F0" stroke="#34C759" stroke-width="0.0239419"/>
<path d="M59.937 0.20459C67.0012 0.204678 72.728 5.93129 72.728 12.9956C72.7279 20.0599 67.0012 25.7865 59.937 25.7866C52.8726 25.7866 47.146 20.0599 47.1459 12.9956C47.1459 5.93123 52.8726 0.20459 59.937 0.20459Z" fill="#EDF9F0" stroke="#34C759" stroke-width="0.0149637"/>
<circle cx="200.978" cy="29.6343" r="9.97712" fill="#EDF9F0" stroke="#34C759" stroke-width="0.0116717"/>
<path d="M197.906 174.773C200.59 174.773 202.767 176.949 202.767 179.634C202.767 182.318 200.591 184.495 197.906 184.495C195.222 184.495 193.046 182.318 193.046 179.634C193.046 176.949 195.222 174.774 197.906 174.773Z" fill="#EDF9F0" stroke="#34C759" stroke-width="0.0056862"/>
<path d="M144.553 35.2739C144.285 35.2166 144.268 34.8544 144.503 34.7593L144.553 34.7437L150.323 33.5171C150.475 33.4846 150.598 33.3766 150.651 33.2339L150.67 33.1714L151.912 27.4419C151.97 27.1748 152.331 27.1583 152.427 27.3921L152.442 27.4419L153.685 33.1714C153.718 33.3231 153.826 33.4455 153.969 33.4985L154.032 33.5171L159.802 34.7437C160.07 34.8007 160.087 35.1639 159.853 35.2593L159.802 35.2739L154.032 36.5015C153.88 36.5338 153.757 36.641 153.703 36.7837L153.685 36.8472L152.442 42.5767C152.384 42.8433 152.023 42.86 151.928 42.6265L151.912 42.5767L150.67 36.8472C150.637 36.6951 150.529 36.572 150.386 36.519L150.323 36.5015L144.553 35.2739Z" fill="white" stroke="#34C759" stroke-width="0.180687"/>
<path d="M15.5 131.873C15.5539 131.619 15.8968 131.603 15.9863 131.826L16.001 131.873L17.7119 139.958C17.7666 140.216 17.9498 140.426 18.1924 140.517L18.2998 140.549L26.3018 142.292C26.5532 142.348 26.5689 142.687 26.3486 142.778L26.3018 142.792L18.2998 144.536C18.0416 144.592 17.8332 144.776 17.7432 145.019L17.7119 145.126L16.001 153.211C15.9473 153.465 15.6045 153.481 15.5146 153.259L15.5 153.211L13.7881 145.126C13.7333 144.868 13.551 144.658 13.3086 144.567L13.2012 144.536L5.19922 142.792C4.94733 142.738 4.93184 142.398 5.15234 142.307L5.19922 142.292L13.2012 140.549C13.4595 140.493 13.668 140.308 13.7578 140.065L13.7881 139.958L15.5 131.873Z" fill="white" stroke="#34C759" stroke-width="0.511946"/>
<path d="M145.007 202.444C145.061 202.191 145.403 202.175 145.493 202.397L145.508 202.444L146.506 207.161C146.56 207.42 146.744 207.629 146.986 207.721L147.094 207.753L151.775 208.772C152.027 208.828 152.042 209.167 151.822 209.258L151.775 209.272L147.094 210.292C146.835 210.348 146.627 210.533 146.537 210.776L146.506 210.884L145.508 215.601C145.454 215.854 145.111 215.869 145.021 215.647L145.007 215.601L144.009 210.884C143.954 210.625 143.771 210.416 143.528 210.324L143.421 210.292L138.739 209.272C138.487 209.218 138.472 208.878 138.692 208.787L138.739 208.772L143.421 207.753C143.679 207.697 143.888 207.512 143.977 207.269L144.009 207.161L145.007 202.444Z" fill="white" stroke="#34C759" stroke-width="0.511946"/>
<path d="M60.4091 62.9374L150.22 51.144C155.552 50.4439 160.442 54.1988 161.142 59.5307L174.832 163.779C175.532 169.111 171.777 174.001 166.445 174.701L76.6338 186.495C71.3019 187.195 66.4118 183.44 65.7116 178.108L52.0224 73.8596C51.3441 68.6941 54.8467 63.9434 59.914 63.0152L60.4091 62.9374Z" fill="#34C759" stroke="#34C759" stroke-width="1.78664"/>
<path d="M176.098 65.7612H85.379C79.4991 65.7612 74.7325 70.5278 74.7325 76.4077V181.71C74.7325 187.59 79.4991 192.356 85.379 192.356H176.098C181.978 192.356 186.744 187.59 186.744 181.71V76.4077C186.744 70.5278 181.978 65.7612 176.098 65.7612Z" fill="#EDF9F0" stroke="#34C759" stroke-width="1.78933" stroke-linecap="round" stroke-linejoin="round"/>
<path fill-rule="evenodd" clip-rule="evenodd" d="M109.091 115.247C107.996 117.889 107.996 121.236 107.996 127.935C107.996 134.634 107.996 137.984 109.091 140.624C110.55 144.146 113.348 146.944 116.87 148.403C119.51 149.498 122.86 149.498 129.559 149.498H136.747C143.522 149.498 146.912 149.498 149.016 147.392C151.122 145.289 151.122 141.899 151.122 135.123V127.935C151.122 121.236 151.122 117.889 150.027 115.247C148.568 111.724 145.77 108.926 142.248 107.467C139.605 106.372 136.258 106.372 129.559 106.372C122.86 106.372 119.51 106.372 116.87 107.467C113.348 108.926 110.55 111.724 109.091 115.247ZM139.142 123.143C139.142 122.508 138.89 121.899 138.441 121.449C137.991 121 137.382 120.748 136.747 120.748H122.371C121.736 120.748 121.126 121 120.677 121.449C120.228 121.899 119.975 122.508 119.975 123.143C119.975 123.779 120.228 124.388 120.677 124.838C121.126 125.287 121.736 125.539 122.371 125.539H136.747C137.382 125.539 137.991 125.287 138.441 124.838C138.89 124.388 139.142 123.779 139.142 123.143ZM139.142 132.727C139.142 132.092 138.89 131.482 138.441 131.033C137.991 130.584 137.382 130.331 136.747 130.331H129.559C128.923 130.331 128.314 130.584 127.865 131.033C127.415 131.482 127.163 132.092 127.163 132.727C127.163 133.362 127.415 133.972 127.865 134.421C128.314 134.871 128.923 135.123 129.559 135.123H136.747C137.382 135.123 137.991 134.871 138.441 134.421C138.89 133.972 139.142 133.362 139.142 132.727Z" fill="#34C759"/>
</svg>
