<svg width="24" height="25" viewBox="0 0 24 25" fill="none" xmlns="http://www.w3.org/2000/svg">
<path d="M12 15.5352C13.8055 15.5352 15.2691 14.0716 15.2691 12.2661C15.2691 10.4607 13.8055 8.99707 12 8.99707C10.1946 8.99707 8.73096 10.4607 8.73096 12.2661C8.73096 14.0716 10.1946 15.5352 12 15.5352Z" fill="#919191"/>
<path d="M23.724 11.3662C20.9129 7.20321 16.4565 4.76571 12.0001 4.79618C7.5437 4.76571 3.0873 7.20321 0.276203 11.3662C0.0963665 11.6317 0.000244141 11.945 0.000244141 12.2657C0.000244141 12.5864 0.0963665 12.8997 0.276203 13.1652C3.0873 17.3282 7.5437 19.7657 12.0001 19.7352C16.4565 19.7657 20.9129 17.3282 23.724 13.1652C23.9038 12.8997 24 12.5864 24 12.2657C24 11.945 23.9038 11.6317 23.724 11.3662ZM12.0001 17.316C11.0013 17.316 10.0248 17.0198 9.19431 16.4649C8.36379 15.91 7.71647 15.1212 7.33423 14.1984C6.95198 13.2756 6.85197 12.2601 7.04684 11.2804C7.2417 10.3008 7.7227 9.4009 8.429 8.6946C9.1353 7.9883 10.0352 7.50731 11.0148 7.31244C11.9945 7.11757 13.01 7.21758 13.9328 7.59983C14.8556 7.98208 15.6444 8.62939 16.1993 9.45991C16.7542 10.2904 17.0504 11.2669 17.0504 12.2657C17.0504 13.6051 16.5183 14.8897 15.5712 15.8368C14.6241 16.7839 13.3395 17.316 12.0001 17.316Z" fill="#919191"/>
</svg>
