<svg width="24" height="25" viewBox="0 0 24 25" fill="none" xmlns="http://www.w3.org/2000/svg">
<path fill-rule="evenodd" clip-rule="evenodd" d="M19 11.5C19.5046 11.4998 19.9906 11.6904 20.3605 12.0335C20.7305 12.3766 20.9572 12.8468 20.995 13.35L21 13.5V19.5C21.0002 20.0046 20.8096 20.4906 20.4665 20.8605C20.1234 21.2305 19.6532 21.4572 19.15 21.495L19 21.5H15C14.4954 21.5002 14.0094 21.3096 13.6395 20.9665C13.2695 20.6234 13.0428 20.1532 13.005 19.65L13 19.5V13.5C12.9998 12.9954 13.1904 12.5094 13.5335 12.1395C13.8766 11.7695 14.3468 11.5428 14.85 11.505L15 11.5H19ZM19 3.5C19.5304 3.5 20.0391 3.71071 20.4142 4.08579C20.7893 4.46086 21 4.96957 21 5.5V7.5C21 8.03043 20.7893 8.53914 20.4142 8.91421C20.0391 9.28929 19.5304 9.5 19 9.5H15C14.4696 9.5 13.9609 9.28929 13.5858 8.91421C13.2107 8.53914 13 8.03043 13 7.5V5.5C13 4.96957 13.2107 4.46086 13.5858 4.08579C13.9609 3.71071 14.4696 3.5 15 3.5H19Z" fill="#34C759"/>
<path fill-rule="evenodd" clip-rule="evenodd" d="M9 3.5C9.53043 3.5 10.0391 3.71071 10.4142 4.08579C10.7893 4.46086 11 4.96957 11 5.5V11.5C11 12.0304 10.7893 12.5391 10.4142 12.9142C10.0391 13.2893 9.53043 13.5 9 13.5H5C4.46957 13.5 3.96086 13.2893 3.58579 12.9142C3.21071 12.5391 3 12.0304 3 11.5V5.5C3 4.96957 3.21071 4.46086 3.58579 4.08579C3.96086 3.71071 4.46957 3.5 5 3.5H9Z" fill="#34C759"/>
<path fill-rule="evenodd" clip-rule="evenodd" d="M9 15.5C9.53043 15.5 10.0391 15.7107 10.4142 16.0858C10.7893 16.4609 11 16.9696 11 17.5V19.5C11 20.0304 10.7893 20.5391 10.4142 20.9142C10.0391 21.2893 9.53043 21.5 9 21.5H5C4.46957 21.5 3.96086 21.2893 3.58579 20.9142C3.21071 20.5391 3 20.0304 3 19.5V17.5C3 16.9696 3.21071 16.4609 3.58579 16.0858C3.96086 15.7107 4.46957 15.5 5 15.5H9Z" fill="#34C759"/>
</svg>
