<svg width="23" height="23" viewBox="0 0 23 23" fill="none" xmlns="http://www.w3.org/2000/svg">
<path d="M9.58184 17.25C9.58184 13.3418 12.5107 10.1209 16.2887 9.64922V9.58184C16.5357 9.22246 17.2455 8.625 17.2455 7.66367C17.2455 6.70234 16.2887 5.74551 16.2887 5.26934C16.2932 1.4375 14.3391 0 11.5 0C8.78223 0 6.70684 1.4375 6.70684 5.26934C6.70684 5.75 5.75 6.70684 5.75 7.66367C5.75 8.62051 6.43281 9.25391 6.70684 9.58184C6.70684 9.58184 6.70684 10.5387 7.1875 11.9762C7.1875 12.4568 8.14434 12.933 8.625 13.4137C8.625 13.8943 8.625 14.3705 8.14434 15.3318L2.875 16.2932C0.956836 16.7693 0 20.125 0 23H12.1918C10.5971 21.5939 9.58184 19.541 9.58184 17.25ZM17.25 11.5C14.074 11.5 11.5 14.074 11.5 17.25C11.5 20.426 14.074 23 17.25 23C20.426 23 23 20.426 23 17.25C23 14.074 20.426 11.5 17.25 11.5ZM21.0818 18.2068H18.2068V21.0818H16.2887V18.2068H13.4137V16.2887H16.2887V13.4137H18.2068V16.2887H21.0818V18.2068Z" fill="#EBEBEF"/>
</svg>
