<svg width="20" height="21" viewBox="0 0 20 21" fill="none" xmlns="http://www.w3.org/2000/svg">
<path d="M9.20817 12.9582L7.6665 14.4998C7.3415 14.8248 6.82484 14.8248 6.4915 14.5082C6.39984 14.4165 6.30817 14.3332 6.2165 14.2415C5.35817 13.3748 4.58317 12.4665 3.8915 11.5165C3.20817 10.5665 2.65817 9.6165 2.25817 8.67484C1.8665 7.72484 1.6665 6.8165 1.6665 5.94984C1.6665 5.38317 1.7665 4.8415 1.9665 4.3415C2.1665 3.83317 2.48317 3.3665 2.92484 2.94984C3.45817 2.42484 4.0415 2.1665 4.65817 2.1665C4.8915 2.1665 5.12484 2.2165 5.33317 2.3165C5.54984 2.4165 5.7415 2.5665 5.8915 2.78317L7.82484 5.50817C7.97484 5.7165 8.08317 5.90817 8.15817 6.0915C8.23317 6.2665 8.27484 6.4415 8.27484 6.59984C8.27484 6.79984 8.2165 6.99984 8.09984 7.1915C7.9915 7.38317 7.83317 7.58317 7.63317 7.78317L6.99984 8.4415C6.90817 8.53317 6.8665 8.6415 6.8665 8.77484C6.8665 8.8415 6.87484 8.89984 6.8915 8.9665C6.9165 9.03317 6.9415 9.08317 6.95817 9.13317C7.10817 9.40817 7.3665 9.7665 7.73317 10.1998C8.10817 10.6332 8.50817 11.0748 8.9415 11.5165C9.02484 11.5998 9.1165 11.6832 9.19984 11.7665C9.53317 12.0915 9.5415 12.6248 9.20817 12.9582Z" fill="#BFCF0D"/>
<path d="M18.3086 15.7747C18.3086 16.008 18.2669 16.2497 18.1836 16.483C18.1586 16.5497 18.1336 16.6164 18.1002 16.683C17.9586 16.983 17.7752 17.2664 17.5336 17.533C17.1252 17.983 16.6752 18.308 16.1669 18.5164C16.1586 18.5164 16.1502 18.5247 16.1419 18.5247C15.6502 18.7247 15.1169 18.833 14.5419 18.833C13.6919 18.833 12.7836 18.633 11.8252 18.2247C10.8669 17.8164 9.90858 17.2664 8.95858 16.5747C8.63358 16.333 8.30858 16.0914 8.00024 15.833L10.7252 13.108C10.9586 13.283 11.1669 13.4164 11.3419 13.508C11.3836 13.5247 11.4336 13.5497 11.4919 13.5747C11.5586 13.5997 11.6252 13.608 11.7002 13.608C11.8419 13.608 11.9502 13.558 12.0419 13.4664L12.6752 12.8414C12.8836 12.633 13.0836 12.4747 13.2752 12.3747C13.4669 12.258 13.6586 12.1997 13.8669 12.1997C14.0252 12.1997 14.1919 12.233 14.3752 12.308C14.5586 12.383 14.7502 12.4914 14.9586 12.633L17.7169 14.5914C17.9336 14.7414 18.0836 14.9164 18.1752 15.1247C18.2586 15.333 18.3086 15.5414 18.3086 15.7747Z" fill="#BFCF0D"/>
</svg>
